<svg xmlns="http://www.w3.org/2000/svg" width="33.833" height="33.836" viewBox="0 0 33.833 33.836">
  <path id="biceps" d="M.446,13.889a.991.991,0,0,1,.91-.117l2.106.776a8.771,8.771,0,0,1,5.085-1.564,8.432,8.432,0,0,1,6.486,2.858,5.233,5.233,0,0,1,3.9-.735,5.482,5.482,0,0,1,2.555,1.256c.443-2.583-1.027-5.008-2.99-7.783a6.552,6.552,0,0,0-3.186-.409,13.773,13.773,0,0,1-2.184-.061,3.107,3.107,0,0,1-2.488-1.89,3.107,3.107,0,0,1,.339-3.106l1.349-1.875A2.959,2.959,0,0,1,15.468.09a22.584,22.584,0,0,1,9.355,4.8,25.127,25.127,0,0,1,5.58,6.974,27.853,27.853,0,0,1,3.452,10.842.991.991,0,0,1-.014.192c-.38,2.24-2.034,4.274-4.655,5.726a18.954,18.954,0,0,1-9.039,2.146,19.014,19.014,0,0,1-8.82-2.026L5.973,33.576a.991.991,0,0,1-.663.256l-4.3,0h0a.991.991,0,0,1-.991-.991V14.7a.991.991,0,0,1,.424-.813Z" transform="translate(-0.022)" fill="#fff"/>
</svg>
