<svg xmlns="http://www.w3.org/2000/svg" width="119.027" height="151.5" viewBox="0 0 119.027 151.5">
  <g id="clipboard" transform="translate(-47.037)">
    <g id="Group_14" data-name="Group 14" transform="translate(47.037 0)">
      <g id="Group_13" data-name="Group 13">
        <path id="Path_84" data-name="Path 84" d="M150.915,19.849H137.209V13.718c0-1.984-2.164-2.885-4.148-2.885h-10.64C119.9,3.619,113.584.012,106.37.012A16.411,16.411,0,0,0,90.32,10.832H79.86c-1.984,0-3.968.9-3.968,2.885v6.132H62.186A15.329,15.329,0,0,0,47.037,34.457V137.794c0,7.935,7.214,13.706,15.149,13.706h88.729c7.935,0,15.149-5.771,15.149-13.706V34.458A15.329,15.329,0,0,0,150.915,19.849Zm-67.809-1.8h9.919A3.968,3.968,0,0,0,96.451,14.8a10.46,10.46,0,0,1,9.919-8.115,10.279,10.279,0,0,1,9.738,8.115,3.968,3.968,0,0,0,3.607,3.246H130V32.474H83.106ZM158.85,137.794c0,3.968-3.968,6.492-7.935,6.492H62.186c-3.968,0-7.935-2.525-7.935-6.492V34.458a8.115,8.115,0,0,1,7.935-7.394H75.892v9.2a3.788,3.788,0,0,0,3.968,3.427h53.2a3.967,3.967,0,0,0,4.148-3.427v-9.2h13.706a8.116,8.116,0,0,1,7.935,7.394V137.794Z" transform="translate(-47.037 0)" fill="#4070f3"/>
        <path id="Path_85" data-name="Path 85" d="M126.939,231.436a3.607,3.607,0,0,0-5.05-.18l-11.542,11-4.869-5.05a3.607,3.607,0,0,0-5.05-.18,3.787,3.787,0,0,0,0,5.23l7.394,7.574a3.246,3.246,0,0,0,2.525,1.082,3.606,3.606,0,0,0,2.525-1.082l14.067-13.345a3.426,3.426,0,0,0,.208-4.841Q127.048,231.535,126.939,231.436Z" transform="translate(-81.312 -150.811)" fill="#40d8f4"/>
        <path id="Path_86" data-name="Path 86" d="M243.634,256.034H202.155a3.607,3.607,0,1,0,0,7.214h41.479a3.607,3.607,0,0,0,0-7.214Z" transform="translate(-146.248 -167.654)" fill="#40d8f4"/>
        <path id="Path_87" data-name="Path 87" d="M126.939,147.844a3.607,3.607,0,0,0-5.05-.18l-11.542,11-4.869-5.05a3.607,3.607,0,0,0-5.05-.18,3.787,3.787,0,0,0,0,5.23l7.394,7.574a3.246,3.246,0,0,0,2.525,1.082,3.606,3.606,0,0,0,2.525-1.082l14.067-13.345a3.426,3.426,0,0,0,.208-4.841Q127.048,147.943,126.939,147.844Z" transform="translate(-81.312 -96.074)" fill="#40d8f4"/>
        <path id="Path_88" data-name="Path 88" d="M243.634,172.442H202.155a3.607,3.607,0,1,0,0,7.214h41.479a3.607,3.607,0,0,0,0-7.214Z" transform="translate(-146.248 -112.917)" fill="#40d8f4"/>
        <path id="Path_89" data-name="Path 89" d="M126.939,315.027a3.607,3.607,0,0,0-5.05-.18l-11.542,11-4.869-5.05a3.607,3.607,0,0,0-5.05-.18,3.787,3.787,0,0,0,0,5.23l7.394,7.574a3.246,3.246,0,0,0,2.525,1.082,3.606,3.606,0,0,0,2.525-1.082l14.067-13.345a3.426,3.426,0,0,0,.208-4.841Q127.048,315.127,126.939,315.027Z" transform="translate(-81.312 -205.547)" fill="#40d8f4"/>
        <path id="Path_90" data-name="Path 90" d="M243.634,339.626H202.155a3.607,3.607,0,1,0,0,7.214h41.479a3.607,3.607,0,1,0,0-7.214Z" transform="translate(-146.248 -215.487)" fill="#40d8f4"/>
      </g>
    </g>
  </g>
</svg>
