<svg id="mail" xmlns="http://www.w3.org/2000/svg" width="66.841" height="50.333" viewBox="0 0 66.841 50.333">
  <path id="Path_74" data-name="Path 74" d="M1488.057,5769.054h57.04s3.715.237,4.759,4.814c.037,1.933,0,3.093,0,3.093s.517,1.193-2.582,3.314-26.773,17.8-26.773,17.8a6.144,6.144,0,0,1-7.516,0c-4-2.339-27.074-17.8-27.074-17.8a6.751,6.751,0,0,1-2.785-3.314,15.192,15.192,0,0,1,0-3.093S1484.51,5769.613,1488.057,5769.054Z" transform="translate(-1483.047 -5769.054)" fill="#120707"/>
  <path id="Path_75" data-name="Path 75" d="M1483.037,5850.024v30.705s-.3,3.752,5.411,5.5c6.057-.019,56.625,0,56.625,0s4.749-1.262,4.78-5.5,0-30.705,0-30.705l-26.437,17.76s-6.6,5.386-13.377,0C1502.812,5863,1483.037,5850.024,1483.037,5850.024Z" transform="translate(-1483.034 -5835.897)" fill="#120707"/>
</svg>
