<svg xmlns="http://www.w3.org/2000/svg" width="89.487" height="146.994" viewBox="0 0 89.487 146.994">
  <g id="iphone" transform="translate(-76)">
    <g id="Group_18" data-name="Group 18" transform="translate(76)">
      <path id="Path_134" data-name="Path 134" d="M150.573,0H90.915C82.691,0,76,7.728,76,17.226V129.768c0,9.5,6.691,17.226,14.915,17.226h59.658c8.224,0,14.915-7.727,14.915-17.226V17.226C165.487,7.728,158.8,0,150.573,0Zm4.972,129.768c0,3.166-2.23,5.742-4.972,5.742H90.915c-2.741,0-4.972-2.576-4.972-5.742V17.226c0-3.166,2.23-5.742,4.972-5.742h8.856l1.036,3.554a5.087,5.087,0,0,0,4.712,3.911h30.451a5.087,5.087,0,0,0,4.712-3.911l1.036-3.554h8.857c2.741,0,4.972,2.576,4.972,5.742Z" transform="translate(-76)" fill="#4070f3"/>
    </g>
  </g>
</svg>
