<svg xmlns="http://www.w3.org/2000/svg" width="50.332" height="50.332" viewBox="0 0 50.332 50.332">
  <path id="linkedin" d="M46.7,0H3.63A3.63,3.63,0,0,0,0,3.63V46.7a3.63,3.63,0,0,0,3.63,3.63H46.7a3.63,3.63,0,0,0,3.63-3.63V3.63A3.63,3.63,0,0,0,46.7,0ZM17.853,38.044H11.724V19.6h6.129ZM14.789,17.087h-.04a3.194,3.194,0,1,1,.081-6.371,3.2,3.2,0,1,1-.041,6.371ZM39.953,38.044H33.825V28.179c0-2.479-.887-4.17-3.105-4.17a3.355,3.355,0,0,0-3.145,2.241,4.2,4.2,0,0,0-.2,1.5v10.3H21.245s.08-16.71,0-18.439h6.129v2.611A6.085,6.085,0,0,1,32.9,19.172c4.032,0,7.056,2.635,7.056,8.3Zm0,0"/>
</svg>
