<svg xmlns="http://www.w3.org/2000/svg" width="29.992" height="29.911" viewBox="0 0 29.992 29.911">
  <g id="new-tab" transform="translate(1520.857 -3201.593)">
    <path id="Path_100" data-name="Path 100" d="M-1515.221,3201.776h8.057a1.558,1.558,0,0,1,1.264,1.479,1.49,1.49,0,0,1-1.264,1.481h-8.057a2.652,2.652,0,0,0-1.766.877,2.68,2.68,0,0,0-.818,1.689v18.06a2.451,2.451,0,0,0,.57,2.174,2.358,2.358,0,0,0,2.014,1.116h18.648a3.037,3.037,0,0,0,2.039-1.116c.794-.654.638-3.428.638-3.428v-6.13a1.635,1.635,0,0,1,1.425-1.249c1.184-.108,1.569,1.249,1.569,1.249v8.137s.246,1.727-1.746,3.782a4.854,4.854,0,0,1-3.926,1.755h-18.17a5.183,5.183,0,0,1-4.549-1.893c-1.887-2.311-1.54-4.1-1.54-4.1v-18.53a5.362,5.362,0,0,1,1.809-3.647A6.452,6.452,0,0,1-1515.221,3201.776Z" transform="translate(0 -0.178)" fill="#fff"/>
    <path id="Path_101" data-name="Path 101" d="M-989.9,3206.757l-10.8,10.728a1.6,1.6,0,0,1-2.379,0,1.432,1.432,0,0,1,.345-2.18l10.649-10.72H-997.5a1.688,1.688,0,0,1-1.44-1.422c-.114-1.233,1.44-1.569,1.44-1.569h8.922a1.518,1.518,0,0,1,1.573,1.2c.195,1.247,0,9.3,0,9.3a1.349,1.349,0,0,1-1.573,1.429c-1.617-.172-1.32-1.429-1.32-1.429Z" transform="translate(-503.947)" fill="#fff"/>
  </g>
</svg>
