<svg xmlns="http://www.w3.org/2000/svg" width="83.246" height="146.994" viewBox="0 0 83.246 146.994">
  <g id="smartphone" transform="translate(-6.87)">
    <path id="Path_108" data-name="Path 108" d="M79.413,0H17.563A10.7,10.7,0,0,0,6.87,10.712V136.3a10.7,10.7,0,0,0,10.693,10.7h61.85a10.708,10.708,0,0,0,10.7-10.7V10.712A10.714,10.714,0,0,0,79.413,0Zm2.681,119.1h-67.2V18.07h67.2ZM62.828,10.87H34.153V7.743h28.68l0,3.127ZM75.1,9.441A2.742,2.742,0,1,1,72.357,6.7,2.743,2.743,0,0,1,75.1,9.441ZM61.543,135.581H35.429v-8.035H61.543Z" transform="translate(0)" fill="#4070f3"/>
  </g>
</svg>
