<svg xmlns="http://www.w3.org/2000/svg" width="33.833" height="32.274" viewBox="0 0 33.833 32.274">
  <g id="star" transform="translate(0 -11.796)">
    <g id="Group_6" data-name="Group 6" transform="translate(0 11.796)">
      <path id="Path_78" data-name="Path 78" d="M33.785,24.051a.991.991,0,0,0-.8-.675L22.5,21.853l-4.691-9.5a.991.991,0,0,0-1.778,0l-4.691,9.5L.849,23.377A.991.991,0,0,0,.3,25.067l7.589,7.4L6.1,42.911a.991.991,0,0,0,1.438,1.045l9.381-4.932L26.3,43.956a.991.991,0,0,0,1.438-1.045L25.944,32.465l7.59-7.4A.991.991,0,0,0,33.785,24.051Z" transform="translate(0 -11.796)" fill="#fff"/>
    </g>
  </g>
</svg>
