<svg id="statistics" xmlns="http://www.w3.org/2000/svg" width="126.918" height="126.918" viewBox="0 0 126.918 126.918">
  <path id="Path_132" data-name="Path 132" d="M41.2,48.528A11.2,11.2,0,0,0,51.293,32.482L63.84,19.749a11.168,11.168,0,0,0,14.966-.473L90.22,30.308a11.2,11.2,0,1,0,21.9,3.551l10.788-7.249a11.192,11.192,0,1,0-3.258-6.806l-10.031,6.74a11.18,11.18,0,0,0-14.894-2.267L82.214,12.187A11.2,11.2,0,1,0,60.01,13L46,27.215a11.2,11.2,0,1,0-4.8,21.313Zm89.59-33.6a3.733,3.733,0,1,1-3.733,3.733A3.737,3.737,0,0,1,130.788,14.932ZM100.925,29.863A3.733,3.733,0,1,1,97.192,33.6,3.737,3.737,0,0,1,100.925,29.863ZM71.062,7.466A3.733,3.733,0,1,1,67.329,11.2,3.737,3.737,0,0,1,71.062,7.466ZM41.2,33.6a3.733,3.733,0,1,1-3.733,3.733A3.737,3.737,0,0,1,41.2,33.6Z" transform="translate(-22.534)" fill="#40d8f4"/>
  <path id="Path_133" data-name="Path 133" d="M119.453,232.124V161.2h-22.4v70.925H89.59V172.4h-22.4v59.726H59.726V150h-22.4v82.124H29.863V179.863H7.466v52.261H0v7.466H126.918v-7.466Zm-104.521,0V187.329H22.4v44.795Zm29.863,0V157.466h7.466v74.658Zm29.863,0V179.863h7.466v52.261Zm29.863,0V168.664h7.466v63.459Z" transform="translate(0 -112.671)" fill="#4070f3"/>
</svg>
