<svg xmlns="http://www.w3.org/2000/svg" width="124.541" height="125.081" viewBox="0 0 124.541 125.081">
  <g id="world-wide-web" transform="translate(-0.056)">
    <path id="Path_109" data-name="Path 109" d="M38.673,12.48,30.668,30.655a1.329,1.329,0,0,1-1.236.741h-4.1a1.324,1.324,0,0,1-1.232-.741l-3.8-8.674c-.37-.856-.707-1.674-1.025-2.487-.351.895-.712,1.727-1.073,2.526L14.2,30.679a1.335,1.335,0,0,1-1.227.717H8.87a1.326,1.326,0,0,1-1.246-.76L.134,12.456A1.047,1.047,0,0,1,.3,11.392a1.378,1.378,0,0,1,1.082-.5H5.993a1.32,1.32,0,0,1,1.265.813l3.291,9.237c.274.779.529,1.515.765,2.218q.433-1.054.933-2.227L16.3,11.642a1.333,1.333,0,0,1,1.232-.746h3.81a1.337,1.337,0,0,1,1.241.755l3.839,9.092c.346.818.654,1.583.938,2.3.236-.683.51-1.424.823-2.237l3.546-9.131a1.323,1.323,0,0,1,1.251-.789h4.455a1.394,1.394,0,0,1,1.092.5A1.056,1.056,0,0,1,38.673,12.48Zm42.922,0L73.59,30.655a1.326,1.326,0,0,1-1.232.741H68.25a1.329,1.329,0,0,1-1.232-.741l-3.8-8.674c-.375-.856-.712-1.674-1.03-2.487-.351.895-.712,1.727-1.073,2.526l-4.007,8.659a1.33,1.33,0,0,1-1.227.717h-4.1a1.33,1.33,0,0,1-1.246-.76l-7.49-18.18a1.047,1.047,0,0,1,.164-1.063,1.4,1.4,0,0,1,1.082-.5h4.614a1.32,1.32,0,0,1,1.265.813l3.286,9.237c.274.779.529,1.515.775,2.218q.426-1.054.924-2.227l4.056-9.294a1.323,1.323,0,0,1,1.232-.746h3.81a1.332,1.332,0,0,1,1.241.755l3.844,9.092c.342.818.649,1.583.928,2.3.245-.683.51-1.424.827-2.237l3.546-9.131a1.33,1.33,0,0,1,1.256-.789h4.455a1.373,1.373,0,0,1,1.092.5A1.047,1.047,0,0,1,81.595,12.48Zm42.917,0-8,18.175a1.334,1.334,0,0,1-1.236.741h-4.1a1.324,1.324,0,0,1-1.232-.741l-3.8-8.674c-.375-.856-.712-1.674-1.03-2.487-.351.895-.717,1.727-1.078,2.526l-4.007,8.659A1.335,1.335,0,0,1,98.8,31.4H94.7a1.333,1.333,0,0,1-1.251-.76l-7.49-18.18a1.056,1.056,0,0,1,.159-1.063,1.387,1.387,0,0,1,1.087-.5h4.618a1.309,1.309,0,0,1,1.26.813l3.291,9.237c.274.779.529,1.515.77,2.218q.426-1.054.924-2.227l4.056-9.294a1.335,1.335,0,0,1,1.236-.746h3.805a1.332,1.332,0,0,1,1.241.755l3.839,9.092c.346.818.659,1.583.943,2.3.236-.683.51-1.424.823-2.237l3.55-9.131a1.314,1.314,0,0,1,1.251-.789h4.455a1.38,1.38,0,0,1,1.092.5A1.078,1.078,0,0,1,124.512,12.48Z" transform="translate(0 41.507)" fill="#40d8f4"/>
    <g id="Group_17" data-name="Group 17" transform="translate(2.616)">
      <path id="Path_110" data-name="Path 110" d="M10.8,43.3a53.136,53.136,0,0,1,5.085-9.8,4.631,4.631,0,0,0,.89.178h9.044A89.839,89.839,0,0,0,23.459,43.3h9.886a77.29,77.29,0,0,1,2.7-9.622H84.089a77.293,77.293,0,0,1,2.7,9.622h9.886a89.84,89.84,0,0,0-2.357-9.622h9.044a4.754,4.754,0,0,0,.895-.178,53.712,53.712,0,0,1,5.08,9.8h10.2A62.5,62.5,0,0,0,.588,43.3ZM96.275,24.054H90.56a60.325,60.325,0,0,0-4.094-7.308A53.022,53.022,0,0,1,96.275,24.054ZM60.069,9.622c7.462,0,14.351,5.552,19.541,14.432H40.527C45.718,15.173,52.607,9.622,60.069,9.622ZM33.662,16.746a60.964,60.964,0,0,0-4.089,7.308h-5.71A53.277,53.277,0,0,1,33.662,16.746Z" transform="translate(-0.588)" fill="#4070f3"/>
      <path id="Path_111" data-name="Path 111" d="M109.341,17a53.433,53.433,0,0,1-5.085,9.8,4.631,4.631,0,0,0-.89-.178H94.317A89.84,89.84,0,0,0,96.674,17H86.788a76.242,76.242,0,0,1-2.7,9.622H36.048A77.057,77.057,0,0,1,33.345,17H23.463a89.838,89.838,0,0,0,2.357,9.622H16.772a4.631,4.631,0,0,0-.89.178A53.433,53.433,0,0,1,10.8,17H.588A62.631,62.631,0,0,0,60.069,60.3,62.62,62.62,0,0,0,119.545,17ZM23.863,36.243h5.715a60.592,60.592,0,0,0,4.089,7.308A53.15,53.15,0,0,1,23.863,36.243ZM60.069,50.676c-7.462,0-14.351-5.552-19.541-14.432H79.605C74.419,45.124,67.53,50.676,60.069,50.676Zm26.4-7.125a59.961,59.961,0,0,0,4.094-7.308H96.28A53.346,53.346,0,0,1,86.47,43.551Z" transform="translate(-0.588 64.784)" fill="#4070f3"/>
    </g>
  </g>
</svg>
